<svg xmlns="http://www.w3.org/2000/svg" xmlns:xlink="http://www.w3.org/1999/xlink" width="500" zoomAndPan="magnify" viewBox="0 0 375 374.999991" height="500" preserveAspectRatio="xMidYMid meet" version="1.0"><defs><clipPath id="ed57267604"><path d="M 11.542969 66.878906 L 261.246094 66.878906 L 261.246094 316.582031 L 11.542969 316.582031 Z M 11.542969 66.878906 " clip-rule="nonzero"/></clipPath><clipPath id="9ad75a5a3c"><path d="M 136.394531 66.878906 C 67.441406 66.878906 11.542969 122.777344 11.542969 191.730469 C 11.542969 260.683594 67.441406 316.582031 136.394531 316.582031 C 205.347656 316.582031 261.246094 260.683594 261.246094 191.730469 C 261.246094 122.777344 205.347656 66.878906 136.394531 66.878906 Z M 136.394531 66.878906 " clip-rule="nonzero"/></clipPath><clipPath id="b05f8d2d70"><path d="M 118.617188 59.203125 L 375 59.203125 L 375 321.703125 L 118.617188 321.703125 Z M 118.617188 59.203125 " clip-rule="nonzero"/></clipPath><clipPath id="17bf5724e6"><path d="M 132.648438 72.554688 L 368 72.554688 L 368 308 L 132.648438 308 Z M 132.648438 72.554688 " clip-rule="nonzero"/></clipPath></defs><g clip-path="url(#ed57267604)"><g clip-path="url(#9ad75a5a3c)"><path fill="#363b45" d="M 11.542969 66.878906 L 261.246094 66.878906 L 261.246094 316.582031 L 11.542969 316.582031 Z M 11.542969 66.878906 " fill-opacity="1" fill-rule="nonzero"/></g></g><g clip-path="url(#b05f8d2d70)"><path fill="#ecedee" d="M 249.714844 59.203125 C 285.917969 59.203125 318.691406 73.875 342.417969 97.601562 C 366.144531 121.328125 380.816406 154.101562 380.816406 190.300781 C 380.816406 226.5 366.144531 259.277344 342.417969 283.003906 C 318.691406 306.730469 285.917969 321.402344 249.714844 321.402344 C 213.515625 321.402344 180.742188 306.730469 157.015625 283.003906 C 133.289062 259.277344 118.617188 226.5 118.617188 190.300781 C 118.617188 154.101562 133.289062 121.328125 157.015625 97.601562 C 180.742188 73.875 213.515625 59.203125 249.714844 59.203125 Z M 332.117188 107.902344 C 311.03125 86.8125 281.894531 73.769531 249.714844 73.769531 C 217.539062 73.769531 188.402344 86.8125 167.316406 107.902344 C 146.226562 128.988281 133.183594 158.121094 133.183594 190.300781 C 133.183594 222.480469 146.226562 251.617188 167.316406 272.703125 C 188.402344 293.792969 217.539062 306.835938 249.714844 306.835938 C 281.894531 306.835938 311.03125 293.792969 332.117188 272.703125 C 353.207031 251.617188 366.25 222.480469 366.25 190.300781 C 366.25 158.121094 353.207031 128.988281 332.117188 107.902344 " fill-opacity="1" fill-rule="nonzero"/></g><g clip-path="url(#17bf5724e6)"><path fill="#363b45" d="M 250.304688 72.554688 C 282.796875 72.554688 312.210938 85.726562 333.503906 107.015625 C 354.796875 128.3125 367.96875 157.726562 367.96875 190.214844 C 367.96875 222.703125 354.796875 252.121094 333.503906 273.410156 C 312.210938 294.707031 282.796875 307.875 250.304688 307.875 C 217.816406 307.875 188.402344 294.707031 167.109375 273.410156 C 145.816406 252.121094 132.648438 222.703125 132.648438 190.214844 C 132.648438 157.726562 145.816406 128.3125 167.109375 107.015625 C 188.402344 85.726562 217.816406 72.554688 250.304688 72.554688 Z M 324.261719 116.261719 C 305.335938 97.335938 279.1875 85.628906 250.304688 85.628906 C 221.429688 85.628906 195.277344 97.335938 176.355469 116.261719 C 157.425781 135.1875 145.722656 161.332031 145.722656 190.214844 C 145.722656 219.097656 157.425781 245.246094 176.355469 264.167969 C 195.277344 283.097656 221.429688 294.800781 250.304688 294.800781 C 279.1875 294.800781 305.335938 283.097656 324.261719 264.167969 C 343.1875 245.246094 354.894531 219.097656 354.894531 190.214844 C 354.894531 161.332031 343.1875 135.1875 324.261719 116.261719 " fill-opacity="1" fill-rule="nonzero"/></g></svg>