<svg xmlns="http://www.w3.org/2000/svg" xmlns:xlink="http://www.w3.org/1999/xlink" width="224" zoomAndPan="magnify" viewBox="0 0 168 61.499998" height="82" preserveAspectRatio="xMidYMid meet" version="1.0"><defs><g/><clipPath id="dcb98d682c"><path d="M 3.058594 5.507812 L 53.617188 5.507812 L 53.617188 56.066406 L 3.058594 56.066406 Z M 3.058594 5.507812 " clip-rule="nonzero"/></clipPath><clipPath id="577315486d"><path d="M 28.335938 5.507812 C 14.375 5.507812 3.058594 16.828125 3.058594 30.789062 C 3.058594 44.75 14.375 56.066406 28.335938 56.066406 C 42.296875 56.066406 53.617188 44.75 53.617188 30.789062 C 53.617188 16.828125 42.296875 5.507812 28.335938 5.507812 Z M 28.335938 5.507812 " clip-rule="nonzero"/></clipPath><clipPath id="2411428bfd"><path d="M 24.738281 3.953125 L 77.558594 3.953125 L 77.558594 56.777344 L 24.738281 56.777344 Z M 24.738281 3.953125 " clip-rule="nonzero"/></clipPath><clipPath id="b1a65cf2a0"><path d="M 27.578125 6.894531 L 75 6.894531 L 75 54.507812 L 27.578125 54.507812 Z M 27.578125 6.894531 " clip-rule="nonzero"/></clipPath></defs><g fill="#ecedee" fill-opacity="1"><g transform="translate(77.831919, 27.934119)"><g><path d="M 17.59375 -14.40625 L 17.59375 0 L 14.078125 0 L 14.078125 -8.640625 L 10.859375 0 L 8.03125 0 L 4.78125 -8.671875 L 4.78125 0 L 1.265625 0 L 1.265625 -14.40625 L 5.421875 -14.40625 L 9.46875 -4.4375 L 13.46875 -14.40625 Z M 17.59375 -14.40625 "/></g></g></g><g fill="#ecedee" fill-opacity="1"><g transform="translate(96.847476, 27.934119)"><g><path d="M 4.78125 -11.59375 L 4.78125 -8.6875 L 9.484375 -8.6875 L 9.484375 -5.96875 L 4.78125 -5.96875 L 4.78125 -2.8125 L 10.09375 -2.8125 L 10.09375 0 L 1.265625 0 L 1.265625 -14.40625 L 10.09375 -14.40625 L 10.09375 -11.59375 Z M 4.78125 -11.59375 "/></g></g></g><g fill="#ecedee" fill-opacity="1"><g transform="translate(108.12967, 27.934119)"><g><path d="M 11.640625 -14.40625 L 11.640625 -11.59375 L 7.828125 -11.59375 L 7.828125 0 L 4.3125 0 L 4.3125 -11.59375 L 0.5 -11.59375 L 0.5 -14.40625 Z M 11.640625 -14.40625 "/></g></g></g><g fill="#ecedee" fill-opacity="1"><g transform="translate(120.43752, 27.934119)"><g><path d="M 10.25 -2.546875 L 4.859375 -2.546875 L 4 0 L 0.328125 0 L 5.546875 -14.40625 L 9.609375 -14.40625 L 14.828125 0 L 11.109375 0 Z M 9.34375 -5.25 L 7.5625 -10.53125 L 5.796875 -5.25 Z M 9.34375 -5.25 "/></g></g></g><g fill="#ecedee" fill-opacity="1"><g transform="translate(77.831919, 45.483043)"><g><path d="M 10.65625 -14.40625 L 10.65625 -11.59375 L 4.78125 -11.59375 L 4.78125 -8.5625 L 9.171875 -8.5625 L 9.171875 -5.828125 L 4.78125 -5.828125 L 4.78125 0 L 1.265625 0 L 1.265625 -14.40625 Z M 10.65625 -14.40625 "/></g></g></g><g fill="#ecedee" fill-opacity="1"><g transform="translate(89.2372, 45.483043)"><g><path d="M 8.09375 0.140625 C 6.738281 0.140625 5.492188 -0.171875 4.359375 -0.796875 C 3.234375 -1.429688 2.335938 -2.3125 1.671875 -3.4375 C 1.003906 -4.5625 0.671875 -5.832031 0.671875 -7.25 C 0.671875 -8.65625 1.003906 -9.921875 1.671875 -11.046875 C 2.335938 -12.171875 3.234375 -13.046875 4.359375 -13.671875 C 5.492188 -14.304688 6.738281 -14.625 8.09375 -14.625 C 9.445312 -14.625 10.6875 -14.304688 11.8125 -13.671875 C 12.945312 -13.046875 13.835938 -12.171875 14.484375 -11.046875 C 15.128906 -9.921875 15.453125 -8.65625 15.453125 -7.25 C 15.453125 -5.832031 15.125 -4.5625 14.46875 -3.4375 C 13.8125 -2.3125 12.921875 -1.429688 11.796875 -0.796875 C 10.679688 -0.171875 9.445312 0.140625 8.09375 0.140625 Z M 8.09375 -3.0625 C 9.238281 -3.0625 10.15625 -3.441406 10.84375 -4.203125 C 11.539062 -4.972656 11.890625 -5.988281 11.890625 -7.25 C 11.890625 -8.519531 11.539062 -9.535156 10.84375 -10.296875 C 10.15625 -11.054688 9.238281 -11.4375 8.09375 -11.4375 C 6.925781 -11.4375 5.992188 -11.054688 5.296875 -10.296875 C 4.609375 -9.546875 4.265625 -8.53125 4.265625 -7.25 C 4.265625 -5.976562 4.609375 -4.960938 5.296875 -4.203125 C 5.992188 -3.441406 6.925781 -3.0625 8.09375 -3.0625 Z M 8.09375 -3.0625 "/></g></g></g><g fill="#ecedee" fill-opacity="1"><g transform="translate(105.545065, 45.483043)"><g><path d="M 8.625 0 L 5.625 -5.4375 L 4.78125 -5.4375 L 4.78125 0 L 1.265625 0 L 1.265625 -14.40625 L 7.171875 -14.40625 C 8.304688 -14.40625 9.269531 -14.207031 10.0625 -13.8125 C 10.863281 -13.414062 11.460938 -12.867188 11.859375 -12.171875 C 12.265625 -11.484375 12.46875 -10.71875 12.46875 -9.875 C 12.46875 -8.914062 12.195312 -8.0625 11.65625 -7.3125 C 11.113281 -6.5625 10.316406 -6.023438 9.265625 -5.703125 L 12.578125 0 Z M 4.78125 -7.921875 L 6.953125 -7.921875 C 7.597656 -7.921875 8.082031 -8.078125 8.40625 -8.390625 C 8.726562 -8.710938 8.890625 -9.160156 8.890625 -9.734375 C 8.890625 -10.273438 8.726562 -10.703125 8.40625 -11.015625 C 8.082031 -11.335938 7.597656 -11.5 6.953125 -11.5 L 4.78125 -11.5 Z M 4.78125 -7.921875 "/></g></g></g><g fill="#ecedee" fill-opacity="1"><g transform="translate(119.10419, 45.483043)"><g><path d="M 11.640625 -14.40625 L 11.640625 -11.59375 L 7.828125 -11.59375 L 7.828125 0 L 4.3125 0 L 4.3125 -11.59375 L 0.5 -11.59375 L 0.5 -14.40625 Z M 11.640625 -14.40625 "/></g></g></g><g fill="#ecedee" fill-opacity="1"><g transform="translate(131.41204, 45.483043)"><g><path d="M 4.78125 -14.40625 L 4.78125 0 L 1.265625 0 L 1.265625 -14.40625 Z M 4.78125 -14.40625 "/></g></g></g><g fill="#ecedee" fill-opacity="1"><g transform="translate(137.648055, 45.483043)"><g><path d="M 10.65625 -14.40625 L 10.65625 -11.59375 L 4.78125 -11.59375 L 4.78125 -8.5625 L 9.171875 -8.5625 L 9.171875 -5.828125 L 4.78125 -5.828125 L 4.78125 0 L 1.265625 0 L 1.265625 -14.40625 Z M 10.65625 -14.40625 "/></g></g></g><g fill="#ecedee" fill-opacity="1"><g transform="translate(149.053333, 45.483043)"><g><path d="M 13.625 -14.40625 L 8.640625 -4.765625 L 8.640625 0 L 5.125 0 L 5.125 -4.765625 L 0.140625 -14.40625 L 4.125 -14.40625 L 6.921875 -8.375 L 9.6875 -14.40625 Z M 13.625 -14.40625 "/></g></g></g><g clip-path="url(#dcb98d682c)"><g clip-path="url(#577315486d)"><path fill="#ecedee" d="M 3.058594 5.507812 L 53.617188 5.507812 L 53.617188 56.066406 L 3.058594 56.066406 Z M 3.058594 5.507812 " fill-opacity="1" fill-rule="nonzero"/></g></g><g clip-path="url(#2411428bfd)"><path fill="#363b45" d="M 51.277344 3.953125 C 58.609375 3.953125 65.246094 6.925781 70.046875 11.730469 C 74.851562 16.53125 77.820312 23.167969 77.820312 30.496094 C 77.820312 37.824219 74.851562 44.460938 70.046875 49.265625 C 65.246094 54.066406 58.609375 57.039062 51.277344 57.039062 C 43.949219 57.039062 37.316406 54.066406 32.511719 49.265625 C 27.707031 44.460938 24.738281 37.824219 24.738281 30.496094 C 24.738281 23.167969 27.707031 16.53125 32.511719 11.730469 C 37.316406 6.925781 43.949219 3.953125 51.277344 3.953125 Z M 67.960938 13.8125 C 63.691406 9.542969 57.792969 6.902344 51.277344 6.902344 C 44.765625 6.902344 38.867188 9.542969 34.597656 13.8125 C 30.328125 18.082031 27.6875 23.980469 27.6875 30.496094 C 27.6875 37.011719 30.328125 42.910156 34.597656 47.179688 C 38.867188 51.449219 44.765625 54.089844 51.277344 54.089844 C 57.792969 54.089844 63.691406 51.449219 67.960938 47.179688 C 72.230469 42.910156 74.871094 37.011719 74.871094 30.496094 C 74.871094 23.980469 72.230469 18.082031 67.960938 13.8125 " fill-opacity="1" fill-rule="nonzero"/></g><g clip-path="url(#b1a65cf2a0)"><path fill="#ecedee" d="M 51.277344 6.894531 C 57.824219 6.894531 63.75 9.546875 68.035156 13.835938 C 72.328125 18.125 74.980469 24.050781 74.980469 30.597656 C 74.980469 37.140625 72.328125 43.066406 68.035156 47.355469 C 63.75 51.644531 57.824219 54.296875 51.277344 54.296875 C 44.734375 54.296875 38.808594 51.644531 34.519531 47.355469 C 30.230469 43.066406 27.578125 37.140625 27.578125 30.597656 C 27.578125 24.050781 30.230469 18.125 34.519531 13.835938 C 38.808594 9.546875 44.734375 6.894531 51.277344 6.894531 Z M 66.175781 15.699219 C 62.363281 11.886719 57.097656 9.53125 51.277344 9.53125 C 45.460938 9.53125 40.195312 11.886719 36.382812 15.699219 C 32.570312 19.511719 30.210938 24.777344 30.210938 30.597656 C 30.210938 36.414062 32.570312 41.679688 36.382812 45.492188 C 40.195312 49.304688 45.460938 51.664062 51.277344 51.664062 C 57.097656 51.664062 62.363281 49.304688 66.175781 45.492188 C 69.988281 41.679688 72.34375 36.414062 72.34375 30.597656 C 72.34375 24.777344 69.988281 19.511719 66.175781 15.699219 " fill-opacity="1" fill-rule="nonzero"/></g></svg>