<svg width="189" height="106" viewBox="0 0 189 106" fill="none" xmlns="http://www.w3.org/2000/svg">
<mask id="mask0_104002_2907" style="mask-type:luminance" maskUnits="userSpaceOnUse" x="0" y="0" width="84" height="72">
<path d="M0.145996 0H83.4853V71.6231H0.145996V0Z" fill="white"/>
</mask>
<g mask="url(#mask0_104002_2907)">
<path d="M64.1096 4.17049C56.4201 6.43093 48.9576 9.39923 41.9025 13.0019C41.8624 13.0219 41.8324 13.042 41.7923 13.062C41.7522 13.042 41.7121 13.0219 41.6721 13.0019C34.617 9.39923 27.1511 6.43093 19.475 4.17049C13.1744 2.30403 6.69027 0.911706 0.145996 0.0168762V71.4964C3.2178 66.1975 6.72032 61.129 10.6135 56.3444C12.2996 54.2642 14.0559 52.2575 15.8823 50.311C22.1428 43.5964 29.1779 37.6498 36.854 32.5713C38.4701 31.4962 40.1161 30.4644 41.7889 29.4694C46.587 26.628 51.5853 24.1205 56.754 21.9936C58.1363 21.4126 59.542 20.8717 60.9476 20.3475L67.6989 17.8701V50.3143C69.5253 52.2609 71.2816 54.2676 72.9677 56.3444C76.8609 61.1324 80.3634 66.1975 83.4352 71.4964V0.0168762C76.8943 0.911706 70.4101 2.30403 64.1096 4.17049ZM15.8823 30.4311V17.8667L22.6336 20.3475C24.0393 20.8684 25.445 21.4093 26.8273 21.9936C23.0376 24.6013 19.3848 27.4127 15.8823 30.4311Z" fill="#ECEDEE"/>
</g>
<path d="M3.83307 105.11H0.440737C0.146912 105.11 0 104.963 0 104.669V89.0164C0 88.7493 0.0534226 88.549 0.160268 88.4154C0.267113 88.2819 0.40067 88.2351 0.560938 88.2685C0.727883 88.2952 0.898168 88.4221 1.06845 88.6425L8.29387 97.7377L15.5593 88.6425C15.7263 88.4288 15.8932 88.3086 16.0535 88.2819C16.2205 88.2485 16.3607 88.2952 16.4675 88.4288C16.5744 88.5557 16.6278 88.7493 16.6278 89.0164V104.669C16.6278 104.963 16.4842 105.11 16.2004 105.11H12.7947C12.5009 105.11 12.354 104.963 12.354 104.669V98.726L8.58769 103.093C8.39069 103.334 8.19036 103.334 7.98669 103.093L4.27381 98.7661V104.669C4.27381 104.963 4.1269 105.11 3.83307 105.11Z" fill="#ECEDEE"/>
<path d="M33.1689 105.11H22.9251C22.6313 105.11 22.4844 104.963 22.4844 104.669V89.0833C22.4844 88.7895 22.6313 88.6425 22.9251 88.6425H33.1689C33.4627 88.6425 33.6096 88.7895 33.6096 89.0833V91.928C33.6096 92.2219 33.4627 92.3688 33.1689 92.3688H26.865V95.9347H32.3141C32.608 95.9347 32.7549 96.0817 32.7549 96.3755V99.0065C32.7549 99.3004 32.608 99.4473 32.3141 99.4473H26.865V101.384H33.1689C33.4627 101.384 33.6096 101.531 33.6096 101.825V104.669C33.6096 104.963 33.4627 105.11 33.1689 105.11Z" fill="#ECEDEE"/>
<path d="M45.6109 105.11H42.0716C41.7778 105.11 41.6309 104.963 41.6309 104.669V92.3688H38.3187C38.0248 92.3688 37.8779 92.2219 37.8779 91.928V89.0833C37.8779 88.7895 38.0248 88.6425 38.3187 88.6425H49.3638C49.6576 88.6425 49.8045 88.7895 49.8045 89.0833V91.928C49.8045 92.2219 49.6576 92.3688 49.3638 92.3688H46.0516V104.669C46.0516 104.963 45.9047 105.11 45.6109 105.11Z" fill="#ECEDEE"/>
<path d="M61.8973 88.6426L69.4432 104.589C69.5134 104.743 69.5167 104.866 69.4566 104.963C69.4032 105.063 69.2897 105.11 69.1227 105.11H65.2496C65.0092 105.11 64.8422 104.997 64.7554 104.763L64.2212 103.374H58.3981L57.8505 104.763C57.7604 104.997 57.5968 105.11 57.3564 105.11H53.4832C53.323 105.11 53.2094 105.063 53.1493 104.963C53.0859 104.866 53.0892 104.743 53.1627 104.589L60.7086 88.6426C60.8689 88.3054 61.0626 88.1351 61.2963 88.1351C61.5367 88.1351 61.737 88.3054 61.8973 88.6426ZM61.3096 95.9482L59.6803 100.088H62.9257L61.3096 95.9482Z" fill="#ECEDEE"/>
<path d="M77.9394 105.11H74.4402C74.1464 105.11 73.9995 104.963 73.9995 104.669V89.0833C73.9995 88.7895 74.1464 88.6425 74.4402 88.6425H84.684C84.9779 88.6425 85.1248 88.7895 85.1248 89.0833V91.928C85.1248 92.2219 84.9779 92.3688 84.684 92.3688H78.3802V95.9347H83.6824C83.9762 95.9347 84.1231 96.0817 84.1231 96.3755V99.0065C84.1231 99.3004 83.9762 99.4473 83.6824 99.4473H78.3802V104.669C78.3802 104.963 78.2333 105.11 77.9394 105.11Z" fill="#ECEDEE"/>
<path d="M98.3737 105.551C97.0382 105.551 95.8228 105.35 94.7276 104.95C93.6325 104.542 92.6909 103.958 91.9096 103.2C91.1249 102.446 90.5206 101.531 90.0932 100.462C89.6658 99.3939 89.4521 98.1985 89.4521 96.8696C89.4521 95.5541 89.6658 94.3588 90.0932 93.2903C90.5206 92.2219 91.1249 91.3103 91.9096 90.5524C92.6909 89.7978 93.6325 89.2168 94.7276 88.8162C95.8228 88.4088 97.0382 88.2018 98.3737 88.2018C99.716 88.2018 100.938 88.4088 102.033 88.8162C103.128 89.2168 104.07 89.7978 104.865 90.5524C105.656 91.3103 106.26 92.2219 106.681 93.2903C107.108 94.3588 107.322 95.5541 107.322 96.8696C107.322 98.1985 107.108 99.3939 106.681 100.462C106.26 101.531 105.656 102.446 104.865 103.2C104.07 103.958 103.128 104.542 102.033 104.95C100.938 105.35 99.716 105.551 98.3737 105.551ZM98.3737 101.598C99.2886 101.598 100.09 101.407 100.778 101.023C101.462 100.643 101.993 100.098 102.367 99.3939C102.748 98.6927 102.941 97.8513 102.941 96.8696C102.941 95.9014 102.748 95.0633 102.367 94.3588C101.993 93.6576 101.462 93.1134 100.778 92.7294C100.09 92.3487 99.2886 92.1551 98.3737 92.1551C97.4655 92.1551 96.6709 92.3487 95.9964 92.7294C95.3186 93.1134 94.7877 93.6576 94.4071 94.3588C94.0331 95.0633 93.8462 95.9014 93.8462 96.8696C93.8462 97.8513 94.0331 98.6927 94.4071 99.3939C94.7877 100.098 95.3186 100.643 95.9964 101.023C96.6709 101.407 97.4655 101.598 98.3737 101.598Z" fill="#ECEDEE"/>
<path d="M123.158 98.9264L126.243 104.589C126.313 104.743 126.316 104.866 126.256 104.963C126.203 105.063 126.089 105.11 125.922 105.11H121.929C121.695 105.11 121.528 105 121.421 104.776L118.777 99.4873H116.921V104.669C116.921 104.963 116.774 105.11 116.48 105.11H112.954C112.66 105.11 112.513 104.963 112.513 104.669V89.0833C112.513 88.7895 112.66 88.6425 112.954 88.6425H119.792C120.717 88.6425 121.515 88.736 122.183 88.923C122.857 89.11 123.418 89.3704 123.865 89.6976C124.32 90.0282 124.68 90.4155 124.947 90.8596C125.221 91.307 125.415 91.7911 125.522 92.3154C125.635 92.8329 125.695 93.3771 125.695 93.9447C125.695 95.1301 125.472 96.1484 125.027 97.0032C124.59 97.858 123.966 98.499 123.158 98.9264ZM119.031 92.3688H116.921V95.7611H119.031C119.154 95.7611 119.311 95.7578 119.498 95.7478C119.685 95.7411 119.886 95.7077 120.099 95.6543C120.313 95.6008 120.507 95.514 120.687 95.3872C120.874 95.2536 121.024 95.0766 121.141 94.8529C121.254 94.6326 121.315 94.3421 121.315 93.9848C121.315 93.5841 121.238 93.2736 121.088 93.0499C120.934 92.8295 120.74 92.6693 120.5 92.5691C120.266 92.4723 120.019 92.4155 119.752 92.3955C119.492 92.3788 119.251 92.3688 119.031 92.3688Z" fill="#ECEDEE"/>
<path d="M137.923 105.11H134.384C134.09 105.11 133.943 104.963 133.943 104.669V92.3688H130.631C130.337 92.3688 130.19 92.2219 130.19 91.928V89.0833C130.19 88.7895 130.337 88.6425 130.631 88.6425H141.676C141.97 88.6425 142.117 88.7895 142.117 89.0833V91.928C142.117 92.2219 141.97 92.3688 141.676 92.3688H138.364V104.669C138.364 104.963 138.217 105.11 137.923 105.11Z" fill="#ECEDEE"/>
<path d="M150.71 105.11H147.211C146.917 105.11 146.771 104.963 146.771 104.669V89.0833C146.771 88.7895 146.917 88.6425 147.211 88.6425H150.71C151.004 88.6425 151.151 88.7895 151.151 89.0833V104.669C151.151 104.963 151.004 105.11 150.71 105.11Z" fill="#ECEDEE"/>
<path d="M160.924 105.11H157.425C157.131 105.11 156.984 104.963 156.984 104.669V89.0833C156.984 88.7895 157.131 88.6425 157.425 88.6425H167.669C167.963 88.6425 168.11 88.7895 168.11 89.0833V91.928C168.11 92.2219 167.963 92.3688 167.669 92.3688H161.365V95.9347H166.667C166.961 95.9347 167.108 96.0817 167.108 96.3755V99.0065C167.108 99.3004 166.961 99.4473 166.667 99.4473H161.365V104.669C161.365 104.963 161.218 105.11 160.924 105.11Z" fill="#ECEDEE"/>
<path d="M182.054 105.11H178.541C178.247 105.11 178.1 104.963 178.1 104.669V98.8062L171.783 89.1634C171.683 89.0232 171.663 88.903 171.716 88.8028C171.776 88.696 171.893 88.6425 172.064 88.6425H176.337C176.578 88.6425 176.751 88.7461 176.858 88.9497L180.317 94.8663L183.843 88.9497C183.95 88.7461 184.124 88.6425 184.364 88.6425H188.625C188.802 88.6425 188.918 88.696 188.972 88.8028C189.025 88.903 189.002 89.0232 188.905 89.1634L182.494 98.8062V104.669C182.494 104.963 182.347 105.11 182.054 105.11Z" fill="#ECEDEE"/>
</svg>
