<svg xmlns="http://www.w3.org/2000/svg" xmlns:xlink="http://www.w3.org/1999/xlink" width="500" zoomAndPan="magnify" viewBox="0 0 375 374.999991" height="500" preserveAspectRatio="xMidYMid meet" version="1.0"><defs><g/><clipPath id="60bb2418e7"><path d="M 77.316406 118.207031 L 174.816406 118.207031 L 174.816406 202 L 77.316406 202 Z M 77.316406 118.207031 " clip-rule="nonzero"/></clipPath></defs><g clip-path="url(#60bb2418e7)"><path fill="#ecedee" d="M 152.144531 123.085938 C 143.152344 125.730469 134.417969 129.203125 126.164062 133.417969 C 126.117188 133.441406 126.082031 133.464844 126.035156 133.488281 C 125.988281 133.464844 125.941406 133.441406 125.894531 133.417969 C 117.640625 129.203125 108.90625 125.730469 99.925781 123.085938 C 92.554688 120.902344 84.96875 119.273438 77.316406 118.226562 L 77.316406 201.847656 C 80.910156 195.652344 85.003906 189.722656 89.5625 184.125 C 91.535156 181.691406 93.585938 179.34375 95.722656 177.066406 C 103.050781 169.210938 111.277344 162.253906 120.257812 156.3125 C 122.148438 155.054688 124.074219 153.847656 126.035156 152.683594 C 131.648438 149.359375 137.492188 146.425781 143.539062 143.9375 C 145.160156 143.257812 146.804688 142.621094 148.445312 142.011719 L 156.347656 139.113281 L 156.347656 177.070312 C 158.480469 179.347656 160.539062 181.695312 162.507812 184.125 C 167.066406 189.726562 171.160156 195.652344 174.753906 201.851562 L 174.753906 118.226562 C 167.101562 119.273438 159.519531 120.902344 152.144531 123.085938 Z M 95.722656 153.808594 L 95.722656 139.109375 L 103.625 142.011719 C 105.269531 142.621094 106.910156 143.253906 108.53125 143.9375 C 104.09375 146.988281 99.820312 150.277344 95.722656 153.808594 Z M 95.722656 153.808594 " fill-opacity="1" fill-rule="nonzero"/></g><g fill="#ecedee" fill-opacity="1"><g transform="translate(75.837334, 236.677031)"><g><path d="M 6.421875 0 L 2.453125 0 C 2.109375 0 1.9375 -0.171875 1.9375 -0.515625 L 1.9375 -18.828125 C 1.9375 -19.140625 2 -19.375 2.125 -19.53125 C 2.25 -19.6875 2.40625 -19.742188 2.59375 -19.703125 C 2.789062 -19.671875 2.988281 -19.523438 3.1875 -19.265625 L 11.640625 -8.625 L 20.140625 -19.265625 C 20.335938 -19.515625 20.53125 -19.65625 20.71875 -19.6875 C 20.914062 -19.726562 21.078125 -19.671875 21.203125 -19.515625 C 21.328125 -19.367188 21.390625 -19.140625 21.390625 -18.828125 L 21.390625 -0.515625 C 21.390625 -0.171875 21.222656 0 20.890625 0 L 16.90625 0 C 16.5625 0 16.390625 -0.171875 16.390625 -0.515625 L 16.390625 -7.46875 L 11.984375 -2.359375 C 11.753906 -2.078125 11.519531 -2.078125 11.28125 -2.359375 L 6.9375 -7.421875 L 6.9375 -0.515625 C 6.9375 -0.171875 6.765625 0 6.421875 0 Z M 6.421875 0 "/></g></g></g><g fill="#ecedee" fill-opacity="1"><g transform="translate(102.173055, 236.677031)"><g><path d="M 14.40625 0 L 2.421875 0 C 2.078125 0 1.90625 -0.171875 1.90625 -0.515625 L 1.90625 -18.75 C 1.90625 -19.09375 2.078125 -19.265625 2.421875 -19.265625 L 14.40625 -19.265625 C 14.75 -19.265625 14.921875 -19.09375 14.921875 -18.75 L 14.921875 -15.421875 C 14.921875 -15.078125 14.75 -14.90625 14.40625 -14.90625 L 7.03125 -14.90625 L 7.03125 -10.734375 L 13.40625 -10.734375 C 13.75 -10.734375 13.921875 -10.5625 13.921875 -10.21875 L 13.921875 -7.140625 C 13.921875 -6.796875 13.75 -6.625 13.40625 -6.625 L 7.03125 -6.625 L 7.03125 -4.359375 L 14.40625 -4.359375 C 14.75 -4.359375 14.921875 -4.1875 14.921875 -3.84375 L 14.921875 -0.515625 C 14.921875 -0.171875 14.75 0 14.40625 0 Z M 14.40625 0 "/></g></g></g><g fill="#ecedee" fill-opacity="1"><g transform="translate(121.572649, 236.677031)"><g><path d="M 9.5625 0 L 5.421875 0 C 5.078125 0 4.90625 -0.171875 4.90625 -0.515625 L 4.90625 -14.90625 L 1.03125 -14.90625 C 0.6875 -14.90625 0.515625 -15.078125 0.515625 -15.421875 L 0.515625 -18.75 C 0.515625 -19.09375 0.6875 -19.265625 1.03125 -19.265625 L 13.953125 -19.265625 C 14.296875 -19.265625 14.46875 -19.09375 14.46875 -18.75 L 14.46875 -15.421875 C 14.46875 -15.078125 14.296875 -14.90625 13.953125 -14.90625 L 10.078125 -14.90625 L 10.078125 -0.515625 C 10.078125 -0.171875 9.90625 0 9.5625 0 Z M 9.5625 0 "/></g></g></g><g fill="#ecedee" fill-opacity="1"><g transform="translate(139.58, 236.677031)"><g><path d="M 10.609375 -19.265625 L 19.4375 -0.609375 C 19.519531 -0.429688 19.523438 -0.285156 19.453125 -0.171875 C 19.390625 -0.0546875 19.257812 0 19.0625 0 L 14.53125 0 C 14.25 0 14.054688 -0.132812 13.953125 -0.40625 L 13.328125 -2.03125 L 6.515625 -2.03125 L 5.875 -0.40625 C 5.769531 -0.132812 5.578125 0 5.296875 0 L 0.765625 0 C 0.578125 0 0.445312 -0.0546875 0.375 -0.171875 C 0.300781 -0.285156 0.304688 -0.429688 0.390625 -0.609375 L 9.21875 -19.265625 C 9.40625 -19.660156 9.632812 -19.859375 9.90625 -19.859375 C 10.1875 -19.859375 10.421875 -19.660156 10.609375 -19.265625 Z M 9.921875 -10.71875 L 8.015625 -5.875 L 11.8125 -5.875 Z M 9.921875 -10.71875 "/></g></g></g><g fill="#ecedee" fill-opacity="1"><g transform="translate(162.441386, 236.677031)"><g><path d="M 6.515625 0 L 2.421875 0 C 2.078125 0 1.90625 -0.171875 1.90625 -0.515625 L 1.90625 -18.75 C 1.90625 -19.09375 2.078125 -19.265625 2.421875 -19.265625 L 14.40625 -19.265625 C 14.75 -19.265625 14.921875 -19.09375 14.921875 -18.75 L 14.921875 -15.421875 C 14.921875 -15.078125 14.75 -14.90625 14.40625 -14.90625 L 7.03125 -14.90625 L 7.03125 -10.734375 L 13.234375 -10.734375 C 13.578125 -10.734375 13.75 -10.5625 13.75 -10.21875 L 13.75 -7.140625 C 13.75 -6.796875 13.578125 -6.625 13.234375 -6.625 L 7.03125 -6.625 L 7.03125 -0.515625 C 7.03125 -0.171875 6.859375 0 6.515625 0 Z M 6.515625 0 "/></g></g></g><g fill="#ecedee" fill-opacity="1"><g transform="translate(181.301637, 236.677031)"><g><path d="M 11.5625 0.515625 C 10 0.515625 8.578125 0.28125 7.296875 -0.1875 C 6.015625 -0.664062 4.914062 -1.347656 4 -2.234375 C 3.082031 -3.117188 2.375 -4.1875 1.875 -5.4375 C 1.375 -6.6875 1.125 -8.085938 1.125 -9.640625 C 1.125 -11.179688 1.375 -12.578125 1.875 -13.828125 C 2.375 -15.078125 3.082031 -16.144531 4 -17.03125 C 4.914062 -17.914062 6.015625 -18.59375 7.296875 -19.0625 C 8.578125 -19.539062 10 -19.78125 11.5625 -19.78125 C 13.132812 -19.78125 14.5625 -19.539062 15.84375 -19.0625 C 17.125 -18.59375 18.226562 -17.914062 19.15625 -17.03125 C 20.082031 -16.144531 20.789062 -15.078125 21.28125 -13.828125 C 21.78125 -12.578125 22.03125 -11.179688 22.03125 -9.640625 C 22.03125 -8.085938 21.78125 -6.6875 21.28125 -5.4375 C 20.789062 -4.1875 20.082031 -3.117188 19.15625 -2.234375 C 18.226562 -1.347656 17.125 -0.664062 15.84375 -0.1875 C 14.5625 0.28125 13.132812 0.515625 11.5625 0.515625 Z M 11.5625 -4.109375 C 12.632812 -4.109375 13.570312 -4.332031 14.375 -4.78125 C 15.175781 -5.226562 15.796875 -5.863281 16.234375 -6.6875 C 16.679688 -7.507812 16.90625 -8.492188 16.90625 -9.640625 C 16.90625 -10.773438 16.679688 -11.753906 16.234375 -12.578125 C 15.796875 -13.398438 15.175781 -14.035156 14.375 -14.484375 C 13.570312 -14.929688 12.632812 -15.15625 11.5625 -15.15625 C 10.5 -15.15625 9.570312 -14.929688 8.78125 -14.484375 C 7.988281 -14.035156 7.367188 -13.398438 6.921875 -12.578125 C 6.484375 -11.753906 6.265625 -10.773438 6.265625 -9.640625 C 6.265625 -8.492188 6.484375 -7.507812 6.921875 -6.6875 C 7.367188 -5.863281 7.988281 -5.226562 8.78125 -4.78125 C 9.570312 -4.332031 10.5 -4.109375 11.5625 -4.109375 Z M 11.5625 -4.109375 "/></g></g></g><g fill="#ecedee" fill-opacity="1"><g transform="translate(207.499382, 236.677031)"><g><path d="M 14.359375 -7.234375 L 17.96875 -0.609375 C 18.050781 -0.429688 18.054688 -0.285156 17.984375 -0.171875 C 17.921875 -0.0546875 17.789062 0 17.59375 0 L 12.921875 0 C 12.648438 0 12.453125 -0.128906 12.328125 -0.390625 L 9.234375 -6.578125 L 7.0625 -6.578125 L 7.0625 -0.515625 C 7.0625 -0.171875 6.890625 0 6.546875 0 L 2.421875 0 C 2.078125 0 1.90625 -0.171875 1.90625 -0.515625 L 1.90625 -18.75 C 1.90625 -19.09375 2.078125 -19.265625 2.421875 -19.265625 L 10.421875 -19.265625 C 11.503906 -19.265625 12.4375 -19.15625 13.21875 -18.9375 C 14.007812 -18.71875 14.664062 -18.414062 15.1875 -18.03125 C 15.71875 -17.644531 16.140625 -17.191406 16.453125 -16.671875 C 16.773438 -16.148438 17 -15.582031 17.125 -14.96875 C 17.257812 -14.363281 17.328125 -13.726562 17.328125 -13.0625 C 17.328125 -11.675781 17.066406 -10.484375 16.546875 -9.484375 C 16.035156 -8.484375 15.304688 -7.734375 14.359375 -7.234375 Z M 9.53125 -14.90625 L 7.0625 -14.90625 L 7.0625 -10.9375 L 9.53125 -10.9375 C 9.675781 -10.9375 9.859375 -10.941406 10.078125 -10.953125 C 10.296875 -10.960938 10.53125 -11 10.78125 -11.0625 C 11.03125 -11.125 11.257812 -11.226562 11.46875 -11.375 C 11.6875 -11.53125 11.863281 -11.738281 12 -12 C 12.132812 -12.257812 12.203125 -12.597656 12.203125 -13.015625 C 12.203125 -13.484375 12.113281 -13.847656 11.9375 -14.109375 C 11.757812 -14.367188 11.53125 -14.554688 11.25 -14.671875 C 10.976562 -14.785156 10.6875 -14.851562 10.375 -14.875 C 10.070312 -14.894531 9.789062 -14.90625 9.53125 -14.90625 Z M 9.53125 -14.90625 "/></g></g></g><g fill="#ecedee" fill-opacity="1"><g transform="translate(229.57057, 236.677031)"><g><path d="M 9.5625 0 L 5.421875 0 C 5.078125 0 4.90625 -0.171875 4.90625 -0.515625 L 4.90625 -14.90625 L 1.03125 -14.90625 C 0.6875 -14.90625 0.515625 -15.078125 0.515625 -15.421875 L 0.515625 -18.75 C 0.515625 -19.09375 0.6875 -19.265625 1.03125 -19.265625 L 13.953125 -19.265625 C 14.296875 -19.265625 14.46875 -19.09375 14.46875 -18.75 L 14.46875 -15.421875 C 14.46875 -15.078125 14.296875 -14.90625 13.953125 -14.90625 L 10.078125 -14.90625 L 10.078125 -0.515625 C 10.078125 -0.171875 9.90625 0 9.5625 0 Z M 9.5625 0 "/></g></g></g><g fill="#ecedee" fill-opacity="1"><g transform="translate(247.577916, 236.677031)"><g><path d="M 6.515625 0 L 2.421875 0 C 2.078125 0 1.90625 -0.171875 1.90625 -0.515625 L 1.90625 -18.75 C 1.90625 -19.09375 2.078125 -19.265625 2.421875 -19.265625 L 6.515625 -19.265625 C 6.859375 -19.265625 7.03125 -19.09375 7.03125 -18.75 L 7.03125 -0.515625 C 7.03125 -0.171875 6.859375 0 6.515625 0 Z M 6.515625 0 "/></g></g></g><g fill="#ecedee" fill-opacity="1"><g transform="translate(259.527126, 236.677031)"><g><path d="M 6.515625 0 L 2.421875 0 C 2.078125 0 1.90625 -0.171875 1.90625 -0.515625 L 1.90625 -18.75 C 1.90625 -19.09375 2.078125 -19.265625 2.421875 -19.265625 L 14.40625 -19.265625 C 14.75 -19.265625 14.921875 -19.09375 14.921875 -18.75 L 14.921875 -15.421875 C 14.921875 -15.078125 14.75 -14.90625 14.40625 -14.90625 L 7.03125 -14.90625 L 7.03125 -10.734375 L 13.234375 -10.734375 C 13.578125 -10.734375 13.75 -10.5625 13.75 -10.21875 L 13.75 -7.140625 C 13.75 -6.796875 13.578125 -6.625 13.234375 -6.625 L 7.03125 -6.625 L 7.03125 -0.515625 C 7.03125 -0.171875 6.859375 0 6.515625 0 Z M 6.515625 0 "/></g></g></g><g fill="#ecedee" fill-opacity="1"><g transform="translate(278.387377, 236.677031)"><g><path d="M 12.375 0 L 8.265625 0 C 7.921875 0 7.75 -0.171875 7.75 -0.515625 L 7.75 -7.375 L 0.359375 -18.65625 C 0.242188 -18.820312 0.21875 -18.960938 0.28125 -19.078125 C 0.351562 -19.203125 0.488281 -19.265625 0.6875 -19.265625 L 5.6875 -19.265625 C 5.96875 -19.265625 6.171875 -19.144531 6.296875 -18.90625 L 10.34375 -11.984375 L 14.46875 -18.90625 C 14.59375 -19.144531 14.796875 -19.265625 15.078125 -19.265625 L 20.0625 -19.265625 C 20.269531 -19.265625 20.40625 -19.203125 20.46875 -19.078125 C 20.53125 -18.960938 20.503906 -18.820312 20.390625 -18.65625 L 12.890625 -7.375 L 12.890625 -0.515625 C 12.890625 -0.171875 12.71875 0 12.375 0 Z M 12.375 0 "/></g></g></g></svg>