<svg xmlns="http://www.w3.org/2000/svg" xmlns:xlink="http://www.w3.org/1999/xlink" width="500" zoomAndPan="magnify" viewBox="0 0 375 374.999991" height="500" preserveAspectRatio="xMidYMid meet" version="1.0"><defs><clipPath id="4d85a29baa"><path d="M 114 37.5 L 261 37.5 L 261 194 L 114 194 Z M 114 37.5 " clip-rule="nonzero"/></clipPath><clipPath id="cacbb99a6b"><path d="M 51 193 L 324 193 L 324 337.5 L 51 337.5 Z M 51 193 " clip-rule="nonzero"/></clipPath></defs><g clip-path="url(#4d85a29baa)"><path fill="#363b45" d="M 187.5 193.113281 C 227.660156 193.113281 260.328125 150.488281 260.328125 110.332031 C 260.328125 70.175781 227.660156 37.5 187.5 37.5 C 147.339844 37.5 114.671875 70.175781 114.671875 110.332031 C 114.675781 150.488281 147.34375 193.113281 187.5 193.113281 Z M 187.5 193.113281 " fill-opacity="1" fill-rule="nonzero"/></g><g clip-path="url(#cacbb99a6b)"><path fill="#363b45" d="M 242.171875 193.859375 C 228.046875 204.625 210.421875 211.027344 191.332031 211.027344 L 183.667969 211.027344 C 164.574219 211.027344 146.945312 204.621094 132.824219 193.859375 C 86.695312 201.316406 51.472656 241.296875 51.472656 289.523438 C 51.472656 316.015625 112.375 337.5 187.5 337.5 C 262.625 337.5 323.527344 316.015625 323.527344 289.523438 C 323.527344 241.296875 288.300781 201.316406 242.171875 193.859375 Z M 242.171875 193.859375 " fill-opacity="1" fill-rule="nonzero"/></g></svg>